<?xml version="1.0" encoding="iso-8859-1"?>
<!-- Uploaded to: SVG Repo, www.svgrepo.com, Generator: SVG Repo Mixer Tools -->
<svg version="1.1" id="Layer_1" xmlns="http://www.w3.org/2000/svg" xmlns:xlink="http://www.w3.org/1999/xlink" 
	 viewBox="0 0 512 512" xml:space="preserve">
<path style="fill:#2D2D2D;" d="M0,355.2v-324c0.104-5.704,4.696-10.296,10.4-10.4h491.2c5.704,0.104,10.296,4.696,10.4,10.4v324H0z"
	/>
<g>
	<path style="fill:#BCBCBC;" d="M512,355.2v41.6c-0.104,5.704-4.696,10.296-10.4,10.4H10.4c-5.704-0.104-10.296-4.696-10.4-10.4
		v-41.6H512z"/>
	<rect x="146.4" y="480.8" style="fill:#BCBCBC;" width="219.2" height="10.4"/>
</g>
<polygon style="fill:#2D2D2D;" points="328.8,480.8 183.2,480.8 193.6,407.2 318.4,407.2 "/>
<rect x="20.8" y="41.6" style="fill:#FFFFFF;" width="470.4" height="292.8"/>
<polygon points="318.4,407.2 193.6,407.2 187.792,448.28 320.272,420.424 "/>
<rect x="105.416" y="106.44" width="301.168" height="197.864"/>
<rect x="105.416" y="71.696" style="fill:#E21B1B;" width="301.168" height="34.752"/>
<rect x="105.416" y="104.4" style="fill:#F91E1E;" width="301.168" height="4"/>
<rect x="206.104" y="237.92" style="fill:#E21B1B;" width="99.792" height="34.752"/>
<g>
	<rect x="159.312" y="181.736" style="fill:#FFFFFF;" width="193.36" height="34.752"/>
	<rect x="159.312" y="135.984" style="fill:#FFFFFF;" width="193.36" height="34.752"/>
</g>
<g>
	<circle style="fill:#999999;" cx="179.488" cy="199.112" r="4.632"/>
	<circle style="fill:#999999;" cx="196.28" cy="199.112" r="4.632"/>
	<circle style="fill:#999999;" cx="213.08" cy="199.112" r="4.632"/>
	<circle style="fill:#999999;" cx="229.872" cy="199.112" r="4.632"/>
	<circle style="fill:#999999;" cx="246.672" cy="199.112" r="4.632"/>
	<circle style="fill:#999999;" cx="263.464" cy="199.112" r="4.632"/>
</g>
<g>
	<path style="fill:#FFFFFF;" d="M227.832,259.744c0.92,0.552,1.976,0.848,3.048,0.856c1.736,0,2.752-0.912,2.752-2.24
		s-0.704-1.936-2.48-2.624c-2.152-0.76-3.48-1.872-3.48-3.728c0.104-2.088,1.88-3.696,3.968-3.592
		c0.096,0.008,0.192,0.016,0.288,0.024c1.008-0.032,2.008,0.184,2.912,0.64l-0.472,1.392c-0.768-0.416-1.624-0.624-2.496-0.624
		c-1.8,0-2.48,1.072-2.48,1.968c0,1.232,0.8,1.832,2.616,2.536c2.224,0.856,3.36,1.928,3.36,3.864s-1.504,3.792-4.608,3.792
		c-1.168,0.024-2.328-0.248-3.36-0.8L227.832,259.744z"/>
	<path style="fill:#FFFFFF;" d="M245.544,259.2c0,0.976,0,1.832,0.08,2.576h-1.52l-0.096-1.544l0,0
		c-0.648,1.112-1.84,1.792-3.128,1.768c-1.488,0-3.264-0.8-3.264-4.144v-5.528h1.72v5.272c0,1.8,0.544,3.008,2.112,3.008
		c1.008-0.024,1.904-0.656,2.264-1.6c0.104-0.28,0.16-0.576,0.16-0.88v-5.8h1.72L245.544,259.2z"/>
	<path style="fill:#FFFFFF;" d="M248.328,261.816c0-0.64,0.08-1.6,0.08-2.4v-11.472h1.696v5.936l0,0
		c0.656-1.128,1.888-1.8,3.2-1.744c2.344,0,4,1.952,4,4.8c0.32,2.464-1.424,4.72-3.888,5.032c-0.12,0.016-0.232,0.024-0.352,0.032
		c-1.328,0.088-2.576-0.608-3.2-1.784h-0.056l-0.08,1.6L248.328,261.816L248.328,261.816z M250.104,258.024
		c0.008,0.208,0.032,0.416,0.08,0.624c0.296,1.184,1.36,2.008,2.576,2.008c1.8,0,2.872-1.464,2.872-3.624
		c0-1.896-0.976-3.512-2.816-3.512c-1.256,0.024-2.328,0.896-2.616,2.112c-0.056,0.232-0.088,0.464-0.096,0.704L250.104,258.024z"/>
	<path style="fill:#FFFFFF;" d="M259.52,254.92c0-0.984,0-1.784-0.08-2.56h1.504l0.08,1.52h0.056
		c0.576-1.096,1.728-1.776,2.968-1.744c1.208-0.016,2.288,0.752,2.672,1.896l0,0c0.264-0.48,0.624-0.896,1.056-1.224
		c0.6-0.464,1.336-0.704,2.096-0.672c1.248,0,3.104,0.8,3.104,4.112v5.6h-1.68v-5.352c0-1.824-0.664-2.912-2.048-2.912
		c-0.952,0.04-1.768,0.688-2.032,1.6c-0.088,0.28-0.144,0.568-0.144,0.856v5.84h-1.68v-5.664c0-1.504-0.664-2.6-1.968-2.6
		c-1.008,0.056-1.856,0.752-2.128,1.72c-0.096,0.272-0.144,0.552-0.136,0.84v5.704h-1.68L259.52,254.92z"/>
	<path style="fill:#FFFFFF;" d="M277.72,249.704c0.032,0.552-0.4,1.032-0.952,1.056c-0.048,0-0.096,0-0.144,0
		c-0.568,0.008-1.024-0.448-1.032-1.016c0-0.016,0-0.024,0-0.04c-0.016-0.576,0.44-1.064,1.016-1.08c0.024,0,0.04,0,0.064,0
		c0.56-0.016,1.032,0.424,1.048,0.984C277.72,249.64,277.72,249.672,277.72,249.704z M275.816,261.816v-9.456h1.72v9.456H275.816z"
		/>
	<path style="fill:#FFFFFF;" d="M282.456,249.64v2.72h2.456v1.312h-2.456v5.096c0,1.168,0.328,1.832,1.28,1.832
		c0.336,0.008,0.672-0.032,1-0.12l0.08,1.288c-0.488,0.168-1,0.248-1.52,0.232c-0.696,0.032-1.368-0.232-1.848-0.728
		c-0.528-0.704-0.768-1.584-0.672-2.456v-5.16h-1.464v-1.312h1.488v-2.264L282.456,249.64z"/>
</g>
<g>
	<path style="fill:#999999;" d="M175.008,160.168V147h1.856l4.216,6.664c0.896,1.368,1.696,2.792,2.4,4.272l0,0
		c-0.16-1.752-0.192-3.36-0.192-5.408v-5.504h1.6v13.168H183.2l-4.176-6.68c-0.912-1.416-1.736-2.888-2.464-4.4h-0.056
		c0.096,1.664,0.136,3.24,0.136,5.432v5.6L175.008,160.168z"/>
	<path style="fill:#999999;" d="M193.04,160.168l-0.136-1.184h-0.056c-0.68,0.904-1.752,1.424-2.888,1.408
		c-1.488,0.104-2.776-1.008-2.88-2.496c-0.008-0.072-0.008-0.152-0.008-0.224c0-2.28,2.032-3.528,5.68-3.512v-0.192
		c0.136-1.072-0.624-2.048-1.696-2.184c-0.152-0.016-0.304-0.024-0.456,0c-0.872,0-1.72,0.248-2.464,0.704l-0.392-1.136
		c0.936-0.56,2.008-0.856,3.104-0.84c2.888,0,3.592,1.976,3.592,3.872v3.528c-0.008,0.76,0.04,1.512,0.16,2.264L193.04,160.168z
		 M192.784,155.368c-1.872,0-4,0.296-4,2.136c-0.064,0.84,0.552,1.568,1.392,1.64c0.072,0.008,0.136,0.008,0.208,0
		c1.032,0.024,1.96-0.624,2.288-1.6c0.064-0.176,0.096-0.36,0.096-0.544L192.784,155.368z"/>
	<path style="fill:#999999;" d="M197.224,153.272c0-0.984,0-1.784-0.08-2.56h1.504l0.08,1.52h0.056
		c0.576-1.096,1.728-1.776,2.968-1.744c1.208-0.008,2.288,0.752,2.672,1.896l0,0c0.264-0.48,0.624-0.896,1.056-1.224
		c0.592-0.464,1.336-0.704,2.088-0.672c1.248,0,3.104,0.8,3.104,4.112v5.6h-1.68v-5.352c0-1.824-0.664-2.912-2.048-2.912
		c-0.952,0.048-1.768,0.688-2.032,1.6c-0.088,0.28-0.136,0.568-0.136,0.856v5.84h-1.68v-5.664c0-1.504-0.664-2.6-1.976-2.6
		c-1.008,0.056-1.856,0.752-2.128,1.72c-0.096,0.272-0.144,0.552-0.136,0.84v5.704h-1.68L197.224,153.272z"/>
	<path style="fill:#999999;" d="M214.472,155.752c-0.136,1.672,1.112,3.144,2.784,3.28c0.152,0.016,0.312,0.016,0.464,0
		c0.896,0.032,1.784-0.136,2.608-0.496l0.296,1.232c-0.992,0.416-2.064,0.616-3.144,0.584c-2.424,0.16-4.512-1.68-4.664-4.096
		c-0.016-0.232-0.008-0.472,0.008-0.704c-0.28-2.528,1.544-4.8,4.064-5.08c0.128-0.016,0.248-0.024,0.376-0.024
		c2.208,0.04,3.968,1.864,3.928,4.072c0,0.128-0.008,0.256-0.024,0.384c0,0.264-0.024,0.536-0.064,0.8L214.472,155.752z
		 M219.52,154.528c0.192-1.344-0.744-2.584-2.088-2.776c-0.104-0.016-0.208-0.024-0.312-0.024c-1.472,0.112-2.608,1.328-2.632,2.8
		H219.52z"/>
</g>
<polygon style="fill:#F91E1E;" points="206.104,259.904 206.104,237.912 228.096,237.912 "/>
</svg>